<svg width="78" height="95" viewBox="0 0 78 95" fill="none" xmlns="http://www.w3.org/2000/svg">
<path d="M40.7667 4.47907C40.0986 5.57824 39.3606 7.02572 38.7226 8.8021C38.0846 7.02572 37.3467 5.58727 36.6786 4.48811C35.5527 2.63576 33.5689 1.39986 31.2984 0.852465C29.1416 0.332461 26.3523 -0.159511 24.141 0.0646487C22.3584 0.245351 19.6527 0.995552 17.7712 2.61892C15.0871 4.93487 14.3592 7.77569 14.2608 10.8806C14.139 14.7205 14.0826 20.2944 14.4809 25.4242C14.7565 28.9743 15.4594 33.0145 16.2467 36.7338C16.3891 37.4061 16.5956 38.048 16.8594 38.6566C5.8474 46.3772 2.55834 58.6938 0.309634 68.5822C-2.93462 82.8483 19.9616 94.0553 38.7226 94.5211C38.7226 94.5211 19.9616 94.9779 38.7226 94.5121C57.4836 94.0462 80.3799 82.8393 77.1356 68.5732C74.8869 58.6848 71.5978 46.3682 60.5859 38.6475C60.8496 38.039 61.0562 37.397 61.1985 36.7248C61.9859 33.0055 62.6888 28.9652 62.9644 25.4152C63.3626 20.2853 63.3062 14.7114 63.1845 10.8716C63.086 7.76665 61.8109 4.19685 59.1128 2.24479C57.2962 0.930535 55.0869 0.236317 53.3043 0.0556139C51.093 -0.168546 48.3037 0.323427 46.1468 0.84343C43.8764 1.39082 41.8925 2.62673 40.7667 4.47907Z" fill="white"/>
<path fill-rule="evenodd" clip-rule="evenodd" d="M37.5801 12.6265L37.8085 33.6497C37.8156 34.3036 38.3515 34.8279 39.0053 34.8208C39.6592 34.8137 40.1835 34.2779 40.1764 33.624L39.9458 12.4019L40.9513 9.60256C41.5316 7.98685 42.1985 6.68261 42.7902 5.70901C43.5113 4.52263 44.8821 3.58424 46.7019 3.14551C48.8194 2.63498 51.2777 2.23035 53.0654 2.41158C54.4952 2.55651 56.2933 3.1277 57.7247 4.16335C59.6317 5.54302 60.7334 8.29132 60.8176 10.9467C60.9383 14.7532 60.9919 20.2282 60.6034 25.2319C60.3394 28.6334 59.6598 32.5592 58.8818 36.2343C58.7725 36.7506 58.6144 37.2414 58.4131 37.7059L57.6452 39.4779L59.2265 40.5865C69.4202 47.7335 72.5716 59.1826 74.8265 69.0983C76.0916 74.6613 72.3885 80.188 64.954 84.6924C57.6684 89.1066 47.6621 91.9213 38.6638 92.1448C38.6264 92.1457 38.589 92.1466 38.5518 92.1476C29.6133 91.8824 19.7149 89.0781 12.4912 84.7015C5.05673 80.1971 1.35363 74.6703 2.61872 69.1073C4.87365 59.1916 8.02505 47.7425 18.2188 40.5955L19.8 39.4869L19.0321 37.715C18.8308 37.2505 18.6727 36.7596 18.5634 36.2434C17.7854 32.5682 17.1059 28.6424 16.8418 25.241C16.4534 20.2372 16.5069 14.7623 16.6276 10.9557C16.7147 8.20972 17.3265 6.13029 19.3182 4.41184C20.7013 3.21846 22.8751 2.57315 24.3798 2.42061C26.1675 2.23939 28.6259 2.64402 30.7434 3.15454C32.5631 3.59327 33.9339 4.53167 34.655 5.71804C35.2489 6.69512 35.9149 7.99036 36.494 9.60256L37.5801 12.6265ZM38.7808 94.5106C38.7615 94.5111 38.7422 94.5116 38.7228 94.5121C38.7228 94.5121 38.7227 94.5121 38.7226 94.5121C38.7225 94.5121 38.7225 94.5121 38.7224 94.5121C38.6635 94.5135 38.6049 94.515 38.5467 94.5164C36.2609 94.4516 33.9153 94.2281 31.5644 93.8598C30.8382 93.746 30.1115 93.6184 29.386 93.4775C13.2151 90.3351 -2.40782 80.5318 0.309634 68.5822C2.55834 58.6938 5.8474 46.3772 16.8594 38.6566C16.5956 38.048 16.3891 37.4061 16.2467 36.7338C15.4594 33.0145 14.7565 28.9743 14.4809 25.4242C14.0826 20.2944 14.139 14.7205 14.2608 10.8806C14.3592 7.77569 15.0871 4.93487 17.7712 2.61892C19.6527 0.995552 22.3584 0.245351 24.141 0.0646487C26.3523 -0.159511 29.1416 0.332461 31.2984 0.852465C33.5689 1.39986 35.5527 2.63576 36.6786 4.48811C36.914 4.87536 37.158 5.30472 37.4033 5.77614C37.7037 6.35343 38.0059 6.99379 38.2964 7.69711C38.442 8.04963 38.5847 8.41796 38.7226 8.8021C38.8605 8.4183 39.003 8.04986 39.1484 7.69696C39.4383 6.99383 39.7398 6.35243 40.0396 5.7743C40.2856 5.29961 40.5305 4.86758 40.7667 4.47907C41.8925 2.62673 43.8764 1.39082 46.1468 0.84343C48.3037 0.323426 51.093 -0.168546 53.3043 0.0556139C55.0869 0.236317 57.2962 0.930535 59.1128 2.24479C61.8109 4.19685 63.086 7.76665 63.1845 10.8716C63.3062 14.7114 63.3626 20.2853 62.9644 25.4152C62.6888 28.9652 61.9859 33.0055 61.1985 36.7248C61.0562 37.397 60.8496 38.039 60.5859 38.6475C71.5978 46.3682 74.8869 58.6848 77.1356 68.5732C80.3765 82.8245 57.531 94.0231 38.7808 94.5106ZM38.7226 94.5211C38.664 94.5197 38.6054 94.5181 38.5467 94.5164C29.3849 94.744 29.3569 94.7469 31.655 94.6921C33.9891 94.6364 38.7226 94.5211 38.7226 94.5211Z" fill="#24154A"/>
<path d="M26.7889 18.0453C24.4995 18.2626 22.8805 20.2878 23.1729 22.5688L24.5099 33.0013C24.7938 35.2167 26.8579 36.7552 29.0621 36.3945L29.4866 36.325C31.585 35.9816 33.0342 34.0375 32.7639 31.9284L31.4635 21.7822C31.1712 19.5011 29.0783 17.8281 26.7889 18.0453Z" fill="#8FA6C3"/>
<path d="M50.8536 18.0453C53.143 18.2626 54.762 20.2878 54.4696 22.5688L53.1326 33.0013C52.8487 35.2167 50.7846 36.7552 48.5804 36.3945L48.1559 36.325C46.0575 35.9816 44.6083 34.0375 44.8786 31.9284L46.179 21.7822C46.4713 19.5011 48.5642 17.8281 50.8536 18.0453Z" fill="#8FA6C3"/>
<path d="M37.99 78.036C38.2538 78.21 38.5958 78.21 38.8595 78.036L41.6471 76.1966C42.3006 75.7655 41.9953 74.7485 41.2124 74.7485H35.6371C34.8542 74.7485 34.5489 75.7655 35.2024 76.1966L37.99 78.036Z" fill="#24154A"/>
<path d="M55.5851 66.6456C55.5851 68.995 54.4424 70.8995 53.0327 70.8995C51.6231 70.8995 50.4803 68.995 50.4803 66.6456C50.4803 64.2962 51.6231 62.3916 53.0327 62.3916C54.4424 62.3916 55.5851 64.2962 55.5851 66.6456Z" fill="#24154A"/>
<path d="M25.5237 66.6456C25.5237 68.995 24.508 70.8995 23.2549 70.8995C22.0019 70.8995 20.9862 68.995 20.9862 66.6456C20.9862 64.2962 22.0019 62.3916 23.2549 62.3916C24.508 62.3916 25.5237 64.2962 25.5237 66.6456Z" fill="#24154A"/>
</svg>
