<svg width="225" height="275" viewBox="0 0 225 275" fill="none" xmlns="http://www.w3.org/2000/svg">
<path d="M118.356 13.0039C116.416 16.195 114.274 20.3974 112.421 25.5547C110.569 20.3974 108.427 16.2212 106.487 13.0301C103.218 7.65227 97.4587 4.06413 90.8671 2.47492C84.6052 0.965217 76.5073 -0.463101 70.0873 0.187691C64.912 0.712316 57.0568 2.89033 51.5944 7.60338C43.8015 14.3272 41.6884 22.5748 41.4025 31.5892C41.049 42.7372 40.8854 58.9195 42.0416 73.8129C42.8417 84.1195 44.8824 95.8494 47.1683 106.647C47.5815 108.599 48.1812 110.463 48.9469 112.23C16.9765 134.645 7.42751 170.403 0.898944 199.111C-8.51992 240.529 57.9535 273.066 112.421 274.418C112.421 274.418 57.9535 275.744 112.421 274.392C166.889 273.04 233.363 240.503 223.944 199.085C217.415 170.377 207.866 134.618 175.896 112.203C176.662 110.437 177.261 108.573 177.674 106.621C179.96 95.8232 182.001 84.0932 182.801 73.7867C183.957 58.8933 183.794 42.711 183.44 31.563C183.154 22.5485 179.452 12.1845 171.619 6.51718C166.345 2.70157 159.931 0.686086 154.756 0.161461C148.336 -0.489331 140.238 0.938988 133.976 2.44869C127.384 4.0379 121.624 7.62604 118.356 13.0039Z" fill="white"/>
<path fill-rule="evenodd" clip-rule="evenodd" d="M109.104 36.6579L109.768 97.6936C109.788 99.592 111.344 101.114 113.242 101.094C115.141 101.073 116.663 99.5173 116.642 97.6189L115.973 36.0059L118.892 27.8786C120.577 23.1878 122.513 19.4013 124.231 16.5747C126.324 13.1303 130.304 10.4059 135.587 9.13219C141.735 7.65001 148.872 6.47527 154.062 7.00141C158.213 7.42219 163.433 9.0805 167.589 12.0872C173.126 16.0928 176.324 24.0718 176.569 31.7809C176.919 42.8323 177.075 58.7275 175.947 73.2545C175.18 83.1298 173.207 94.5274 170.949 105.197C170.631 106.696 170.172 108.121 169.588 109.47L167.358 114.614L171.949 117.833C201.544 138.582 210.693 171.822 217.24 200.609C220.913 216.76 210.162 232.806 188.578 245.883C167.426 258.699 138.375 266.87 112.251 267.519C112.142 267.522 112.033 267.525 111.925 267.527C85.9748 266.758 57.2374 258.616 36.2652 245.909C14.6809 232.832 3.92993 216.787 7.60278 200.636C14.1494 171.848 23.2987 138.608 52.8937 117.859L57.4844 114.64L55.255 109.496C54.6706 108.147 54.2115 106.722 53.8942 105.223C51.6355 94.5537 49.6626 83.156 48.896 73.2808C47.7682 58.7537 47.9236 42.8586 48.2741 31.8071C48.5269 23.8349 50.3032 17.7977 56.0855 12.8087C60.1011 9.34399 66.412 7.47049 70.7807 7.02764C75.9709 6.5015 83.108 7.67624 89.2557 9.15842C94.5389 10.4322 98.5187 13.1566 100.612 16.6009C102.336 19.4376 104.27 23.198 105.951 27.8786L109.104 36.6579ZM112.59 274.388C112.534 274.389 112.478 274.391 112.422 274.392C112.422 274.392 112.422 274.392 112.421 274.392C112.421 274.392 112.421 274.392 112.421 274.392C112.25 274.396 112.08 274.401 111.911 274.405C105.274 274.216 98.4645 273.568 91.6392 272.498C89.531 272.168 87.4213 271.798 85.3148 271.388C38.3668 262.265 -6.9905 233.804 0.898944 199.111C7.42751 170.403 16.9765 134.645 48.9469 112.23C48.1812 110.463 47.5815 108.599 47.1683 106.647C44.8824 95.8494 42.8417 84.1195 42.0416 73.8129C40.8854 58.9195 41.049 42.7372 41.4025 31.5892C41.6884 22.5748 43.8015 14.3272 51.5944 7.60338C57.0568 2.89033 64.912 0.712316 70.0873 0.187691C76.5072 -0.463101 84.6052 0.965218 90.8671 2.47492C97.4587 4.06413 103.218 7.65227 106.487 13.0301C107.17 14.1544 107.879 15.4009 108.591 16.7696C109.463 18.4456 110.341 20.3047 111.184 22.3466C111.607 23.3701 112.021 24.4394 112.421 25.5547C112.822 24.4404 113.235 23.3707 113.658 22.3462C114.499 20.3048 115.375 18.4427 116.245 16.7642C116.959 15.3861 117.67 14.1318 118.356 13.0039C121.624 7.62604 127.384 4.0379 133.976 2.44869C140.238 0.938987 148.336 -0.489331 154.756 0.161461C159.931 0.686086 166.345 2.70157 171.619 6.51718C179.452 12.1845 183.154 22.5485 183.44 31.563C183.794 42.711 183.957 58.8933 182.801 73.7867C182.001 84.0932 179.96 95.8232 177.674 106.621C177.261 108.573 176.662 110.437 175.896 112.203C207.866 134.618 217.415 170.377 223.944 199.085C233.353 240.46 167.027 272.972 112.59 274.388ZM112.421 274.418C112.251 274.414 112.081 274.41 111.911 274.405C85.3115 275.065 85.2305 275.074 91.9023 274.915C98.6787 274.753 112.421 274.418 112.421 274.418Z" fill="#24154A"/>
<path d="M77.7744 52.3908C71.1277 53.0215 66.4276 58.9013 67.2763 65.5236L71.158 95.8117C71.9823 102.243 77.9748 106.71 84.3741 105.663L85.6066 105.461C91.6989 104.464 95.9061 98.82 95.1213 92.6968L91.3461 63.2397C90.4974 56.6173 84.4211 51.7601 77.7744 52.3908Z" fill="#8FA6C3"/>
<path d="M147.64 52.3908C154.287 53.0215 158.987 58.9013 158.139 65.5236L154.257 95.8117C153.432 102.243 147.44 106.71 141.041 105.663L139.808 105.461C133.716 104.464 129.509 98.82 130.293 92.6968L134.069 63.2397C134.917 56.6173 140.994 51.7601 147.64 52.3908Z" fill="#8FA6C3"/>
<path d="M110.295 226.558C111.06 227.063 112.053 227.063 112.819 226.558L120.912 221.218C122.809 219.966 121.923 217.013 119.65 217.013H103.464C101.191 217.013 100.304 219.966 102.202 221.218L110.295 226.558Z" fill="#24154A"/>
<path d="M161.377 193.488C161.377 200.309 158.06 205.839 153.967 205.839C149.875 205.839 146.557 200.309 146.557 193.488C146.557 186.667 149.875 181.138 153.967 181.138C158.06 181.138 161.377 186.667 161.377 193.488Z" fill="#24154A"/>
<path d="M74.102 193.488C74.102 200.309 71.153 205.839 67.5152 205.839C63.8774 205.839 60.9283 200.309 60.9283 193.488C60.9283 186.667 63.8774 181.138 67.5152 181.138C71.153 181.138 74.102 186.667 74.102 193.488Z" fill="#24154A"/>
</svg>
