<svg width="183" height="97" viewBox="0 0 183 97" fill="none" xmlns="http://www.w3.org/2000/svg">
<mask id="path-1-inside-1_10_678" fill="white">
<path fill-rule="evenodd" clip-rule="evenodd" d="M151.023 96.0106C151.012 96.0106 151.002 96.0106 150.991 96.0106C150.981 96.0106 150.97 96.0106 150.959 96.0106H32.0351C32.0246 96.0106 32.0141 96.0106 32.0035 96.0106C31.993 96.0106 31.9825 96.0106 31.9719 96.0106H28.7212V95.8443C12.5881 94.2007 0 80.574 0 64.0071C0 46.332 14.3285 32.0035 32.0035 32.0035C34.256 32.0035 36.4542 32.2362 38.5753 32.6789C38.5706 32.4543 38.5683 32.2292 38.5683 32.0035C38.5683 14.3285 52.8967 0 70.5718 0C78.968 0 86.6091 3.23332 92.3178 8.52276C98.0265 3.23332 105.668 0 114.064 0C131.739 0 146.067 14.3285 146.067 32.0035C146.067 32.1293 146.067 32.2549 146.065 32.3803C147.671 32.1322 149.316 32.0035 150.991 32.0035C168.666 32.0035 182.995 46.332 182.995 64.0071C182.995 81.1317 169.545 95.1149 152.632 95.9692V96.0106H151.023Z"/>
</mask>
<path fill-rule="evenodd" clip-rule="evenodd" d="M151.023 96.0106C151.012 96.0106 151.002 96.0106 150.991 96.0106C150.981 96.0106 150.97 96.0106 150.959 96.0106H32.0351C32.0246 96.0106 32.0141 96.0106 32.0035 96.0106C31.993 96.0106 31.9825 96.0106 31.9719 96.0106H28.7212V95.8443C12.5881 94.2007 0 80.574 0 64.0071C0 46.332 14.3285 32.0035 32.0035 32.0035C34.256 32.0035 36.4542 32.2362 38.5753 32.6789C38.5706 32.4543 38.5683 32.2292 38.5683 32.0035C38.5683 14.3285 52.8967 0 70.5718 0C78.968 0 86.6091 3.23332 92.3178 8.52276C98.0265 3.23332 105.668 0 114.064 0C131.739 0 146.067 14.3285 146.067 32.0035C146.067 32.1293 146.067 32.2549 146.065 32.3803C147.671 32.1322 149.316 32.0035 150.991 32.0035C168.666 32.0035 182.995 46.332 182.995 64.0071C182.995 81.1317 169.545 95.1149 152.632 95.9692V96.0106H151.023Z" fill="white"/>
<path d="M28.7212 96.0106V99.0106H25.7212V96.0106H28.7212ZM28.7212 95.8443L29.0253 92.8598L31.7212 93.1344V95.8443H28.7212ZM38.5753 32.6789L41.5746 32.6168L41.6527 36.3859L37.9623 35.6156L38.5753 32.6789ZM92.3178 8.52276L94.3568 10.7233L92.3178 12.6126L90.2788 10.7233L92.3178 8.52276ZM146.065 32.3803L146.523 35.3451L143.025 35.8856L143.065 32.3457L146.065 32.3803ZM152.632 95.9692H149.632V93.117L152.481 92.9731L152.632 95.9692ZM152.632 96.0106H155.632V99.0106H152.632V96.0106ZM151.023 99.0106C151.019 99.0106 151.014 99.0106 151.009 99.0106C151.004 99.0106 150.998 99.0106 150.991 99.0106V93.0106C150.995 93.0106 150.999 93.0106 151.005 93.0106C151.01 93.0106 151.016 93.0106 151.023 93.0106V99.0106ZM150.991 99.0106C150.985 99.0106 150.978 99.0106 150.973 99.0106C150.968 99.0106 150.963 99.0106 150.959 99.0106V93.0106C150.966 93.0106 150.972 93.0106 150.977 93.0106C150.983 93.0106 150.987 93.0106 150.991 93.0106V99.0106ZM32.0351 93.0106H150.959V99.0106H32.0351V93.0106ZM32.0351 99.0106C32.0311 99.0106 32.0269 99.0106 32.0215 99.0106C32.0164 99.0106 32.0101 99.0106 32.0035 99.0106V93.0106C32.0075 93.0106 32.0117 93.0106 32.0172 93.0106C32.0222 93.0106 32.0286 93.0106 32.0351 93.0106V99.0106ZM32.0035 99.0106C31.997 99.0106 31.9906 99.0106 31.9856 99.0106C31.9801 99.0106 31.9759 99.0106 31.9719 99.0106V93.0106C31.9785 93.0106 31.9848 93.0106 31.9899 93.0106C31.9953 93.0106 31.9995 93.0106 32.0035 93.0106V99.0106ZM28.7212 93.0106H31.9719V99.0106H28.7212V93.0106ZM31.7212 95.8443V96.0106H25.7212V95.8443H31.7212ZM28.4171 98.8289C10.7685 97.0309 -3 82.1288 -3 64.0071H3C3 79.0191 14.4077 91.3706 29.0253 92.8598L28.4171 98.8289ZM-3 64.0071C-3 44.6751 12.6716 29.0035 32.0035 29.0035V35.0035C15.9853 35.0035 3 47.9888 3 64.0071H-3ZM32.0035 29.0035C34.4632 29.0035 36.8667 29.2577 39.1882 29.7422L37.9623 35.6156C36.0417 35.2148 34.0489 35.0035 32.0035 35.0035V29.0035ZM35.5759 32.7411C35.5708 32.4958 35.5683 32.2499 35.5683 32.0035H41.5683C41.5683 32.2085 41.5704 32.4129 41.5746 32.6168L35.5759 32.7411ZM35.5683 32.0035C35.5683 12.6716 51.2399 -3 70.5718 -3V3C54.5536 3 41.5683 15.9853 41.5683 32.0035H35.5683ZM70.5718 -3C79.7535 -3 88.1154 0.539142 94.3568 6.32217L90.2788 10.7233C85.1028 5.92749 78.1826 3 70.5718 3V-3ZM90.2788 6.32217C96.5202 0.539142 104.882 -3 114.064 -3V3C106.453 3 99.5327 5.92749 94.3568 10.7233L90.2788 6.32217ZM114.064 -3C133.396 -3 149.067 12.6716 149.067 32.0035H143.067C143.067 15.9853 130.082 3 114.064 3V-3ZM149.067 32.0035C149.067 32.1408 149.067 32.2779 149.065 32.4149L143.065 32.3457C143.067 32.2318 143.067 32.1178 143.067 32.0035H149.067ZM145.607 29.4155C147.364 29.1441 149.162 29.0035 150.991 29.0035V35.0035C149.47 35.0035 147.978 35.1204 146.523 35.3451L145.607 29.4155ZM150.991 29.0035C170.323 29.0035 185.995 44.6751 185.995 64.0071H179.995C179.995 47.9888 167.009 35.0035 150.991 35.0035V29.0035ZM185.995 64.0071C185.995 82.7378 171.284 98.0309 152.784 98.9654L152.481 92.9731C167.805 92.1989 179.995 79.5255 179.995 64.0071H185.995ZM149.632 96.0106V95.9692H155.632V96.0106H149.632ZM151.023 93.0106H152.632V99.0106H151.023V93.0106Z" fill="#24154A" mask="url(#path-1-inside-1_10_678)"/>
</svg>
