<svg width="101" height="74" viewBox="0 0 101 74" fill="none" xmlns="http://www.w3.org/2000/svg">
<path d="M76.5862 45.6919H97.5622C98.367 45.6919 98.9581 45.7925 99.3353 45.9937C99.7126 46.1698 99.9641 46.459 100.09 46.8614C100.216 47.2638 100.279 47.792 100.279 48.4459C100.279 49.0999 100.216 49.628 100.09 50.0305C99.9641 50.4077 99.7503 50.6718 99.4485 50.8227C98.9958 51.0491 98.3545 51.1623 97.5245 51.1623H90.3187V70.1387C90.3187 70.7172 90.2935 71.1448 90.2432 71.4214C90.2181 71.6981 90.1049 72.0251 89.9037 72.4023C89.7276 72.7544 89.4007 73.006 88.9228 73.1569C88.4449 73.3078 87.8162 73.3832 87.0365 73.3832C86.2568 73.3832 85.628 73.3078 85.1501 73.1569C84.6974 73.006 84.3705 72.7544 84.1692 72.4023C83.9932 72.0251 83.88 71.6981 83.8297 71.4214C83.8046 71.1196 83.792 70.6795 83.792 70.101V51.1623H76.5485C75.7436 51.1623 75.1526 51.0742 74.7753 50.8982C74.3981 50.697 74.1465 50.3951 74.0208 49.9927C73.895 49.5903 73.8322 49.0621 73.8322 48.4082C73.8322 47.7543 73.895 47.2387 74.0208 46.8614C74.1465 46.459 74.3603 46.1823 74.6621 46.0314C75.1149 45.8051 75.7562 45.6919 76.5862 45.6919Z" fill="#24154A"/>
<path d="M65.0858 49.0494C65.0858 48.471 65.0983 48.0434 65.1235 47.7667C65.1738 47.4649 65.2995 47.1254 65.5007 46.7481C65.8529 46.069 66.8338 45.7295 68.4434 45.7295C70.204 45.7295 71.2478 46.1948 71.5747 47.1254C71.7005 47.5529 71.7634 48.2069 71.7634 49.0872V70.0632C71.7634 70.6668 71.7382 71.1069 71.6879 71.3836C71.6628 71.6603 71.5496 71.9872 71.3484 72.3645C70.9963 73.0436 70.0154 73.3831 68.4057 73.3831C66.6451 73.3831 65.6139 72.9052 65.3121 71.9495C65.1612 71.5471 65.0858 70.9057 65.0858 70.0254V49.0494Z" fill="#24154A"/>
<path d="M39.2687 45.3896C42.9911 45.3896 46.223 46.7352 48.9644 49.4264C51.7059 52.1176 53.0766 55.4627 53.0766 59.4617C53.0766 63.4356 51.7688 66.8309 49.1531 69.6479C46.5374 72.4396 43.318 73.8355 39.4951 73.8355C35.6721 73.8355 32.415 72.4522 29.7239 69.6856C27.0579 66.919 25.7249 63.6242 25.7249 59.8012C25.7249 57.7137 26.1021 55.7645 26.8567 53.9536C27.6112 52.1176 28.6172 50.5833 29.8748 49.3509C31.1323 48.1185 32.5785 47.1502 34.2133 46.446C35.8482 45.7418 37.5333 45.3896 39.2687 45.3896ZM32.4025 59.6126C32.4025 61.851 33.1193 63.6745 34.5529 65.0829C36.0116 66.4663 37.6339 67.1579 39.4196 67.1579C41.2053 67.1579 42.815 66.4788 44.2486 65.1207C45.6822 63.7625 46.399 61.9391 46.399 59.6503C46.399 57.3616 45.6697 55.5255 44.2109 54.1422C42.7773 52.7589 41.1676 52.0673 39.3819 52.0673C37.5962 52.0673 35.9865 52.7715 34.5529 54.18C33.1193 55.5633 32.4025 57.3741 32.4025 59.6126Z" fill="#24154A"/>
<path d="M2.75404 45.6919H23.73C24.5349 45.6919 25.1259 45.7925 25.5032 45.9937C25.8805 46.1698 26.132 46.459 26.2577 46.8614C26.3835 47.2638 26.4464 47.792 26.4464 48.4459C26.4464 49.0999 26.3835 49.628 26.2577 50.0305C26.132 50.4077 25.9182 50.6718 25.6164 50.8227C25.1637 51.0491 24.5223 51.1623 23.6923 51.1623H16.4865V70.1387C16.4865 70.7172 16.4614 71.1448 16.4111 71.4214C16.3859 71.6981 16.2727 72.0251 16.0715 72.4023C15.8955 72.7544 15.5685 73.006 15.0906 73.1569C14.6128 73.3078 13.984 73.3832 13.2043 73.3832C12.4246 73.3832 11.7959 73.3078 11.318 73.1569C10.8653 73.006 10.5383 72.7544 10.3371 72.4023C10.161 72.0251 10.0479 71.6981 9.99755 71.4214C9.9724 71.1196 9.95983 70.6795 9.95983 70.101V51.1623H2.71632C1.91148 51.1623 1.32043 51.0742 0.943165 50.8982C0.565899 50.697 0.314388 50.3951 0.188633 49.9927C0.0628777 49.5903 0 49.0621 0 48.4082C0 47.7543 0.0628777 47.2387 0.188633 46.8614C0.314388 46.459 0.528173 46.1823 0.829985 46.0314C1.2827 45.8051 1.92406 45.6919 2.75404 45.6919Z" fill="#24154A"/>
<path d="M76.9852 5.92289C77.6392 7.2559 77.9661 8.73982 77.9661 10.3746C77.9661 12.0095 77.6392 13.4934 76.9852 14.8264C76.3313 16.1342 75.4887 17.178 74.4575 17.9577C72.37 19.5674 70.207 20.3722 67.9686 20.3722H63.2527V24.6353C63.2527 25.2138 63.2276 25.6539 63.1773 25.9557C63.1521 26.2324 63.039 26.5594 62.8378 26.9366C62.4856 27.6157 61.5047 27.9552 59.8951 27.9552C58.1345 27.9552 57.1033 27.4899 56.8015 26.5594C56.6506 26.1318 56.5751 25.4779 56.5751 24.5976V3.6593C56.5751 3.08082 56.5877 2.65325 56.6129 2.37659C56.6632 2.07478 56.7889 1.73524 56.9901 1.35797C57.3422 0.678895 58.3231 0.339355 59.9328 0.339355H68.0063C70.2196 0.339355 72.37 1.14419 74.4575 2.75386C75.4887 3.53354 76.3313 4.58989 76.9852 5.92289ZM68.0063 13.6946C68.7608 13.6946 69.5028 13.4179 70.2322 12.8646C70.9615 12.3113 71.3262 11.4813 71.3262 10.3746C71.3262 9.26799 70.9615 8.438 70.2322 7.88468C69.5028 7.3062 68.7483 7.01697 67.9686 7.01697H63.2527V13.6946H68.0063Z" fill="#24154A"/>
<path d="M40.3003 0C44.0226 0 47.2546 1.34558 49.996 4.03675C52.7375 6.72791 54.1082 10.073 54.1082 14.072C54.1082 18.0459 52.8004 21.4413 50.1847 24.2582C47.5689 27.05 44.3496 28.4459 40.5266 28.4459C36.7037 28.4459 33.4466 27.0626 30.7554 24.2959C28.0894 21.5293 26.7564 18.2345 26.7564 14.4116C26.7564 12.324 27.1337 10.3748 27.8882 8.56394C28.6428 6.72791 29.6488 5.1937 30.9064 3.96129C32.1639 2.72889 33.6101 1.76058 35.2449 1.05634C36.8797 0.352115 38.5649 0 40.3003 0ZM33.434 14.2229C33.434 16.4614 34.1508 18.2848 35.5845 19.6933C37.0432 21.0766 38.6655 21.7683 40.4512 21.7683C42.2369 21.7683 43.8466 21.0892 45.2802 19.731C46.7138 18.3729 47.4306 16.5494 47.4306 14.2607C47.4306 11.9719 46.7012 10.1359 45.2425 8.75257C43.8089 7.36927 42.1992 6.67761 40.4135 6.67761C38.6277 6.67761 37.0181 7.38184 35.5845 8.7903C34.1508 10.1736 33.434 11.9845 33.434 14.2229Z" fill="#24154A"/>
<path d="M18.0333 1.35797C18.2345 0.980709 18.574 0.716622 19.0519 0.565714C19.5298 0.414808 20.1334 0.339355 20.8628 0.339355C21.5922 0.339355 22.1706 0.402233 22.5982 0.527988C23.0258 0.653744 23.3527 0.80465 23.5791 0.980709C23.8055 1.15677 23.9815 1.40828 24.1073 1.73524C24.233 2.16281 24.2959 2.81674 24.2959 3.69702V24.6353C24.2959 25.2138 24.2708 25.6539 24.2205 25.9557C24.1953 26.2324 24.0821 26.5594 23.8809 26.9366C23.5288 27.6157 22.5479 27.9552 20.9382 27.9552C19.1777 27.9552 18.1465 27.4899 17.8447 26.5594C17.6937 26.1318 17.6183 25.4779 17.6183 24.5976V16.9391H7.62074V24.6353C7.62074 25.2138 7.59559 25.6539 7.54529 25.9557C7.52014 26.2324 7.40696 26.5594 7.20575 26.9366C6.85363 27.6157 5.87274 27.9552 4.26307 27.9552C2.5025 27.9552 1.4713 27.4899 1.16949 26.5594C1.01858 26.1318 0.94313 25.4779 0.94313 24.5976V3.6593C0.94313 3.08082 0.955706 2.65325 0.980857 2.37659C1.03116 2.07478 1.15691 1.73524 1.35812 1.35797C1.71024 0.678895 2.69113 0.339355 4.3008 0.339355C6.06138 0.339355 7.10514 0.80465 7.43211 1.73524C7.55786 2.16281 7.62074 2.81674 7.62074 3.69702V11.3933H17.6183V3.6593C17.6183 3.08082 17.6309 2.65325 17.656 2.37659C17.7063 2.07478 17.8321 1.73524 18.0333 1.35797Z" fill="#24154A"/>
</svg>
